<svg width="1313" height="112" viewBox="0 0 1313 112" fill="none" xmlns="http://www.w3.org/2000/svg">
<path d="M0.5 68.7727V52.7727L64.5 24.5909V43L20.6818 60.5909L21.2727 59.6364V61.9091L20.6818 60.9545L64.5 78.5455V96.9545L0.5 68.7727ZM1235.9 0.545448L1205.9 112H1189.22L1219.22 0.545448H1235.9ZM1313 68.7727L1249 96.9545V78.5455L1292.82 60.9545L1292.23 61.9091V59.6364L1292.82 60.5909L1249 43V24.5909L1313 52.7727V68.7727Z" fill="url(#paint0_linear_109_7)"/>
<path d="M161.364 4.90909V98H148.455L101.136 29.7273H100.273V98H86.2273V4.90909H99.2273L146.591 73.2727H147.455V4.90909H161.364ZM210.17 99.4091C203.625 99.4091 197.913 97.9091 193.034 94.9091C188.155 91.9091 184.367 87.7121 181.67 82.3182C178.973 76.9242 177.625 70.6212 177.625 63.4091C177.625 56.1667 178.973 49.8333 181.67 44.4091C184.367 38.9848 188.155 34.7727 193.034 31.7727C197.913 28.7727 203.625 27.2727 210.17 27.2727C216.716 27.2727 222.428 28.7727 227.307 31.7727C232.186 34.7727 235.973 38.9848 238.67 44.4091C241.367 49.8333 242.716 56.1667 242.716 63.4091C242.716 70.6212 241.367 76.9242 238.67 82.3182C235.973 87.7121 232.186 91.9091 227.307 94.9091C222.428 97.9091 216.716 99.4091 210.17 99.4091ZM210.216 88C214.458 88 217.973 86.8788 220.761 84.6364C223.549 82.3939 225.61 79.4091 226.943 75.6818C228.307 71.9545 228.989 67.8485 228.989 63.3636C228.989 58.9091 228.307 54.8182 226.943 51.0909C225.61 47.3333 223.549 44.3182 220.761 42.0455C217.973 39.7727 214.458 38.6364 210.216 38.6364C205.943 38.6364 202.398 39.7727 199.58 42.0455C196.792 44.3182 194.716 47.3333 193.352 51.0909C192.019 54.8182 191.352 58.9091 191.352 63.3636C191.352 67.8485 192.019 71.9545 193.352 75.6818C194.716 79.4091 196.792 82.3939 199.58 84.6364C202.398 86.8788 205.943 88 210.216 88ZM284.023 99.3636C278.386 99.3636 273.356 97.9242 268.932 95.0455C264.538 92.1364 261.083 88 258.568 82.6364C256.083 77.2424 254.841 70.7727 254.841 63.2273C254.841 55.6818 256.098 49.2273 258.614 43.8636C261.159 38.5 264.644 34.3939 269.068 31.5455C273.492 28.697 278.508 27.2727 284.114 27.2727C288.447 27.2727 291.932 28 294.568 29.4545C297.235 30.8788 299.295 32.5455 300.75 34.4545C302.235 36.3636 303.386 38.0455 304.205 39.5H305.023V4.90909H318.614V98H305.341V87.1364H304.205C303.386 88.6212 302.205 90.3182 300.659 92.2273C299.144 94.1364 297.053 95.803 294.386 97.2273C291.72 98.6515 288.265 99.3636 284.023 99.3636ZM287.023 87.7727C290.932 87.7727 294.235 86.7424 296.932 84.6818C299.659 82.5909 301.72 79.697 303.114 76C304.538 72.303 305.25 68 305.25 63.0909C305.25 58.2424 304.553 54 303.159 50.3636C301.765 46.7273 299.72 43.8939 297.023 41.8636C294.326 39.8333 290.992 38.8182 287.023 38.8182C282.932 38.8182 279.523 39.8788 276.795 42C274.068 44.1212 272.008 47.0151 270.614 50.6818C269.25 54.3485 268.568 58.4848 268.568 63.0909C268.568 67.7576 269.265 71.9545 270.659 75.6818C272.053 79.4091 274.114 82.3636 276.841 84.5455C279.598 86.697 282.992 87.7727 287.023 87.7727ZM368.102 99.4091C361.223 99.4091 355.299 97.9394 350.33 95C345.39 92.0303 341.572 87.8636 338.875 82.5C336.208 77.1061 334.875 70.7879 334.875 63.5455C334.875 56.3939 336.208 50.0909 338.875 44.6364C341.572 39.1818 345.33 34.9242 350.148 31.8636C354.996 28.803 360.663 27.2727 367.148 27.2727C371.087 27.2727 374.905 27.9242 378.602 29.2273C382.299 30.5303 385.617 32.5758 388.557 35.3636C391.496 38.1515 393.814 41.7727 395.511 46.2273C397.208 50.6515 398.057 56.0303 398.057 62.3636V67.1818H342.557V57H384.739C384.739 53.4242 384.011 50.2576 382.557 47.5C381.102 44.7121 379.057 42.5151 376.42 40.9091C373.814 39.303 370.754 38.5 367.239 38.5C363.42 38.5 360.087 39.4394 357.239 41.3182C354.42 43.1667 352.239 45.5909 350.693 48.5909C349.178 51.5606 348.42 54.7879 348.42 58.2727V66.2273C348.42 70.8939 349.239 74.8636 350.875 78.1364C352.542 81.4091 354.86 83.9091 357.83 85.6364C360.799 87.3333 364.269 88.1818 368.239 88.1818C370.814 88.1818 373.163 87.8182 375.284 87.0909C377.405 86.3333 379.239 85.2121 380.784 83.7273C382.33 82.2424 383.511 80.4091 384.33 78.2273L397.193 80.5455C396.163 84.3333 394.314 87.6515 391.648 90.5C389.011 93.3182 385.693 95.5152 381.693 97.0909C377.723 98.6364 373.193 99.4091 368.102 99.4091ZM448.091 98V4.90909H484.818C491.848 4.90909 497.848 6.16666 502.818 8.68182C507.818 11.1667 511.621 14.697 514.227 19.2727C516.864 23.8182 518.182 29.1667 518.182 35.3182C518.182 41.5 516.848 46.8182 514.182 51.2727C511.515 55.697 507.652 59.0909 502.591 61.4545C497.561 63.8182 491.47 65 484.318 65H459.727V49.1818H481.136C484.894 49.1818 488.015 48.6667 490.5 47.6364C492.985 46.6061 494.833 45.0606 496.045 43C497.288 40.9394 497.909 38.3788 497.909 35.3182C497.909 32.2273 497.288 29.6212 496.045 27.5C494.833 25.3788 492.97 23.7727 490.455 22.6818C487.97 21.5606 484.833 21 481.045 21H467.773V98H448.091ZM498.364 55.6364L521.5 98H499.773L477.136 55.6364H498.364ZM562.42 99.3636C555.239 99.3636 549.057 97.9091 543.875 95C538.723 92.0606 534.754 87.9091 531.966 82.5455C529.178 77.1515 527.784 70.7727 527.784 63.4091C527.784 56.2273 529.178 49.9242 531.966 44.5C534.754 39.0758 538.678 34.8485 543.739 31.8182C548.83 28.7879 554.799 27.2727 561.648 27.2727C566.254 27.2727 570.542 28.0152 574.511 29.5C578.511 30.9545 581.996 33.1515 584.966 36.0909C587.966 39.0303 590.299 42.7273 591.966 47.1818C593.633 51.6061 594.466 56.7879 594.466 62.7273V68.0455H535.511V56.0455H576.239C576.239 53.2576 575.633 50.7879 574.42 48.6364C573.208 46.4848 571.527 44.803 569.375 43.5909C567.254 42.3485 564.784 41.7273 561.966 41.7273C559.027 41.7273 556.42 42.4091 554.148 43.7727C551.905 45.1061 550.148 46.9091 548.875 49.1818C547.602 51.4242 546.951 53.9242 546.92 56.6818V68.0909C546.92 71.5455 547.557 74.5303 548.83 77.0455C550.133 79.5606 551.966 81.5 554.33 82.8636C556.693 84.2273 559.496 84.9091 562.739 84.9091C564.89 84.9091 566.86 84.6061 568.648 84C570.436 83.3939 571.966 82.4848 573.239 81.2727C574.511 80.0606 575.481 78.5758 576.148 76.8182L594.057 78C593.148 82.303 591.284 86.0606 588.466 89.2727C585.678 92.4545 582.072 94.9394 577.648 96.7273C573.254 98.4848 568.178 99.3636 562.42 99.3636ZM665.193 48.0909L647.466 49.1818C647.163 47.6667 646.511 46.303 645.511 45.0909C644.511 43.8485 643.193 42.8636 641.557 42.1364C639.951 41.3788 638.027 41 635.784 41C632.784 41 630.254 41.6364 628.193 42.9091C626.133 44.1515 625.102 45.8182 625.102 47.9091C625.102 49.5758 625.769 50.9848 627.102 52.1364C628.436 53.2879 630.723 54.2121 633.966 54.9091L646.602 57.4545C653.39 58.8485 658.451 61.0909 661.784 64.1818C665.117 67.2727 666.784 71.3333 666.784 76.3636C666.784 80.9394 665.436 84.9545 662.739 88.4091C660.072 91.8636 656.405 94.5606 651.739 96.5C647.102 98.4091 641.754 99.3636 635.693 99.3636C626.451 99.3636 619.087 97.4394 613.602 93.5909C608.148 89.7121 604.951 84.4394 604.011 77.7727L623.057 76.7727C623.633 79.5909 625.027 81.7424 627.239 83.2273C629.451 84.6818 632.284 85.4091 635.739 85.4091C639.133 85.4091 641.86 84.7576 643.92 83.4545C646.011 82.1212 647.072 80.4091 647.102 78.3182C647.072 76.5606 646.33 75.1212 644.875 74C643.42 72.8485 641.178 71.9697 638.148 71.3636L626.057 68.9545C619.239 67.5909 614.163 65.2273 610.83 61.8636C607.527 58.5 605.875 54.2121 605.875 49C605.875 44.5151 607.087 40.6515 609.511 37.4091C611.966 34.1667 615.405 31.6667 619.83 29.9091C624.284 28.1515 629.496 27.2727 635.466 27.2727C644.284 27.2727 651.223 29.1364 656.284 32.8636C661.375 36.5909 664.345 41.6667 665.193 48.0909ZM716.114 28.1818V42.7273H674.068V28.1818H716.114ZM683.614 11.4545H702.977V76.5455C702.977 78.3333 703.25 79.7273 703.795 80.7273C704.341 81.697 705.098 82.3788 706.068 82.7727C707.068 83.1667 708.22 83.3636 709.523 83.3636C710.432 83.3636 711.341 83.2879 712.25 83.1364C713.159 82.9545 713.856 82.8182 714.341 82.7273L717.386 97.1364C716.417 97.4394 715.053 97.7879 713.295 98.1818C711.538 98.6061 709.402 98.8636 706.886 98.9545C702.22 99.1364 698.129 98.5152 694.614 97.0909C691.129 95.6667 688.417 93.4545 686.477 90.4545C684.538 87.4545 683.583 83.6667 683.614 79.0909V11.4545ZM730.591 98V4.90909H792.227V21.1364H750.273V43.3182H788.136V59.5455H750.273V98H730.591ZM845.5 68.2727V28.1818H864.864V98H846.273V85.3182H845.545C843.97 89.4091 841.348 92.697 837.682 95.1818C834.045 97.6667 829.606 98.9091 824.364 98.9091C819.697 98.9091 815.591 97.8485 812.045 95.7273C808.5 93.6061 805.727 90.5909 803.727 86.6818C801.758 82.7727 800.758 78.0909 800.727 72.6364V28.1818H820.091V69.1818C820.121 73.303 821.227 76.5606 823.409 78.9545C825.591 81.3485 828.515 82.5455 832.182 82.5455C834.515 82.5455 836.697 82.0152 838.727 80.9545C840.758 79.8636 842.394 78.2576 843.636 76.1364C844.909 74.0152 845.53 71.3939 845.5 68.2727ZM899.716 4.90909V98H880.352V4.90909H899.716ZM961.261 98H940.17L972.307 4.90909H997.67L1029.76 98H1008.67L985.352 26.1818H984.625L961.261 98ZM959.943 61.4091H1009.76V76.7727H959.943V61.4091ZM1040.97 98V4.90909H1077.69C1084.75 4.90909 1090.77 6.25757 1095.74 8.95454C1100.71 11.6212 1104.5 15.3333 1107.1 20.0909C1109.74 24.8182 1111.06 30.2727 1111.06 36.4545C1111.06 42.6364 1109.72 48.0909 1107.06 52.8182C1104.39 57.5455 1100.53 61.2273 1095.47 63.8636C1090.44 66.5 1084.34 67.8182 1077.19 67.8182H1053.78V52.0455H1074.01C1077.8 52.0455 1080.92 51.3939 1083.38 50.0909C1085.86 48.7576 1087.71 46.9242 1088.92 44.5909C1090.16 42.2273 1090.78 39.5151 1090.78 36.4545C1090.78 33.3636 1090.16 30.6667 1088.92 28.3636C1087.71 26.0303 1085.86 24.2273 1083.38 22.9545C1080.89 21.6515 1077.74 21 1073.92 21H1060.65V98H1040.97ZM1143.52 4.90909V98H1123.84V4.90909H1143.52Z" fill="black"/>
<defs>
<linearGradient id="paint0_linear_109_7" x1="657" y1="-26" x2="657" y2="129" gradientUnits="userSpaceOnUse">
<stop stop-color="#7A74BF"/>
<stop offset="1" stop-color="#BFCAFF"/>
</linearGradient>
</defs>
</svg>
